<svg xmlns="http://www.w3.org/2000/svg" viewBox="0 0 2000 2000"><defs><style>.a{fill:#ededed}.b{fill:#ebebeb}.d{fill:#f3f3f3}.e{fill:#f5f5f5}.f{fill:#e3e3e3}.g{fill:#f1f1f1}.h{fill:#f2f2f2}.l{fill:#eaeaea}.n{fill:#e8e8e8}.o{fill:#e6e6e6}.p{fill:#e9e9e9}.q{fill:#dfdfdf}.r{fill:#ececec}.s{fill:#f4f4f4}</style></defs><path class="a" d="M196.2 0L162 107.3l-55 173L14 104 196.2 0z"/><path class="b" d="M1727.3 320.7l-140 195.3-32-151.3 172-44z"/><path class="a" d="M1832 440l-244.7 76 140-195.3L1832 440zM196.2 0L0 112V0h196.2z"/><path fill="#efefef" d="M794 0l-36.7 117.3-94.6-70.6L726 0h68z"/><path class="b" d="M662.7 46.7l-6 228.6-148.7 56 10-294 144.7 9.4z"/><path class="d" d="M518 37.3l-10 294-116.7-84.6L518 37.3z"/><path class="e" d="M518 37.3L391.3 246.7 378 62l140-24.7z"/><path class="b" d="M726 0l-63.3 46.7V0H726z"/><path class="f" d="M1555.3 364.7L1233.9 194l230.8-22.7 90.6 193.4z"/><path class="g" d="M1122 178l-1.3 167.3L962 194.7l160-16.7z"/><path class="h" d="M1233.9 194L1122 178l202.7-128-90.8 144z"/><path class="g" d="M1233.9 194l-113.2 151.3L1122 178l111.9 16z"/><path class="d" d="M1955.3 229.3l-228 91.4 87.4-196 140.6 104.6zM1651.3 122l-186.6 49.3 58.6-132.2 128 82.9zM1008.7 0L757.3 117.3 794 0h214.7z"/><path fill="#e7e7e7" d="M757.3 117.3l-100.6 158 6-228.6 94.6 70.6z"/><path class="f" d="M805.3 386.2L692 686l-91.3-134 204.6-165.8z"/><path fill="#e0e0e0" d="M692 686l-270-74 178.7-60L692 686z"/><path class="d" d="M805.3 386.2L600.7 552l56-276.7 148.6 111z"/><path fill="#f0f0f0" d="M656.7 275.3l-56 276.7L508 331.3l148.7-56z"/><path class="d" d="M358.5 432l-129.2 90.7-90.6-154.3L358.5 432z"/><path class="b" d="M229.3 522.7l-90 131.3-78.6-160.7 168.6 29.4z"/><path class="b" d="M138.7 368.4l-78 125 46.3-213 31.7 88z"/><path class="a" d="M229.3 522.7L60.7 493.3l78-124.9 90.6 154.3z"/><path class="f" d="M229.3 522.7V770l-90-116 90-131.3z"/><path class="b" d="M229.3 770L0 805.3 139.3 654l90 116z"/><path class="l" d="M130.7 911.3L0 979.3v-174l130.7 106z"/><path class="a" d="M248.7 989.3L15.3 1130.7l115.4-219.4 118 78z"/><path class="g" d="M508 331.3L358.5 432l-42.8-119.4 75.6-66L508 331.4zM107 280.3l-46.3 213L0 557V357.3l107-77z"/><path class="h" d="M139.3 654L0 805.3V557l60.7-63.6L139.3 654z"/><path class="b" d="M107 280.3l-107 77V112l14-8 93 176.3z"/><path fill="#dedede" d="M410.7 0L378 62l-216 45.3L196.2 0h214.5z"/><path class="g" d="M315.7 312.6L358.5 432l-219.8-63.6-31.7-88 55-173L378 62l13.3 184.7-75.6 66zM662.7 0v46.7L518 37.3 378 62l32.7-62h252zM977.3 452l-172-65.8-148.6-110.9 100.6-158L962 194.7 977.3 452z"/><path class="e" d="M1122 178l-160 16.7-204.7-77.4L1008.7 0h324l-8 50L1122 178z"/><path class="b" d="M1555.3 364.7l-300 14-134.6-33.4L1233.9 194l321.4 170.7z"/><path class="n" d="M1555.3 364.7l-90.6-193.4 186.6-49.3 76 198.7-172 44zM1943.3 71.3L1908 0h92l-56.7 71.3z"/><path class="b" d="M2000 49.5l-56.7 21.8L2000 0v49.5z"/><path class="o" d="M2000 131.3l-56.7-60 56.7-21.8v81.8z"/><path class="e" d="M2000 229.3h-44.7l-12-158 56.7 60v98z"/><path class="g" d="M2000 376.7l-25.3 8.6-19.4-156h44.7v147.4z"/><path class="b" d="M1974.7 385.3L1832 440l-104.7-119.3 228-91.4 19.4 156z"/><path class="e" d="M2000 482.7v54.6L1832 440l142.7-54.7 25.3 97.4z"/><path class="g" d="M2000 537.3l-189 178.1 21-275.4 168 97.3zM1467 785.5L1284 762l30.5-214L1467 785.5z"/><path class="d" d="M1621 859l-171 163 17-236.5 154 73.5z"/><path class="g" d="M1621 859l-154-73.5 47-124L1621 859z"/><path class="d" d="M1664.5 651.5L1621 859l-107-197.5 150.5-10z"/><path class="g" d="M1139.5 496.5l-270 78.5 107.8-123 162.2 44.5zM1450 1022l-103.5 30-89.5-194 193 164z"/><path class="n" d="M2000 690.5l-189 25 189-178.2v153.2z"/><path class="b" d="M2000 690.5v180l-60.7-49.8L1811 715.4l189-24.9z"/><path class="g" d="M1803.5 1194.5l-183.5 89 56-168.5 127.5 79.5z"/><path class="d" d="M1676 1115l-56 168.5-155.5-78.5 211.5-90zM1464.5 1205l-118-153 103.5-30 14.5 183z"/><path class="o" d="M1831 1393.5l-211-110 183.5-89 27.5 199zM1682.5 1528.5l-62.5-245 211 110-148.5 135z"/><path class="a" d="M1559.5 1759.5l-67.5-238 190.5 7-123 231z"/><path class="g" d="M1130 1692.7L1000 1580l251.3-78.4-121.3 191z"/><path class="d" d="M1728 1672.7l-168.5 86.8 123-231 45.5 144.2z"/><path class="b" d="M1130 1692.7l-236 6 106-118.7 130 112.7z"/><path class="d" d="M1000 1580l-106 118.7-86-164 192 45.3zM727.3 1689.3L686.7 1972l-101.4-228.7 142-54z"/><path class="a" d="M727.3 1689.3l-142 54 82-200.6 60 146.6z"/><path class="p" d="M667.3 1542.7l-82 200.6-87.8-158.4 169.8-42.2z"/><path class="f" d="M667.3 1542.7l-169.8 42.2 33.2-207.6 136.6 165.4z"/><path class="q" d="M530.7 1377.3L497.4 1585l-100.7-182.2 134-25.4z"/><path class="o" d="M530.7 1377.3l-134 25.4-100-200 234 174.6z"/><path class="g" d="M550 1166.7l-19.3 210.6-234-174.6 253.3-36z"/><path class="a" d="M838 1054l-136 344.7-30-285.4 166-59.3z"/><path class="d" d="M838 1054l-166 59.3L720 961l118 93z"/><path class="g" d="M720 961l-267.5 30.5 165.4-145.8L720 961z"/><path class="a" d="M617.9 845.7L452.5 991.5 422 612l195.9 233.7z"/><path class="d" d="M780.5 774L720 961 617.9 845.7 780.5 774z"/><path class="g" d="M692 686l-74.1 159.7L422 612l270 74z"/><path class="a" d="M2000 482.7l-25.3-97.4 25.3-8.6v106z"/><path class="g" d="M1523.3 39.1l-36-39.1h124l-88 39.1z"/><path class="g" d="M1464.7 171.3L1233.9 194l90.8-144 8-50h154.6l36 39.1-58.6 132.2z"/><path class="e" d="M1727.3 320.7l-76-198.7-128-82.9 88-39.1H1730l84.7 124.7-87.4 196z"/><path class="g" d="M1955.3 229.3l-140.6-104.6L1730 0h178l35.3 71.3 12 158z"/><path class="h" d="M396.7 1402.7l-41.2 203.8-256-92 96-146 201.2 34.2z"/><path class="b" d="M18 1767.8L0 2000v-382.5l18 150.3z"/><path class="r" d="M99.5 1514.5l-3-224 99 78-96 146z"/><path class="e" d="M396.7 1402.7l-201.2-34.2 101.2-165.8 100 200z"/><path class="d" d="M296.7 1202.7l-101.2 165.8-99-78 200.2-87.8z"/><path class="e" d="M96.5 1290.5l-81.2-159.8 281.4 72-200.2 87.8z"/><path class="g" d="M296.7 1202.7l-281.4-72 233.4-141.4 48 213.4z"/><path class="l" d="M15.3 1130.7L0 1191v-67.7l15.3 7.4z"/><path class="e" d="M1467 785.5l-17 236.5-193-164 27-96 183 23.5z"/><path class="s" d="M1284 762l-27 96-205 20.8 32.6-100.8 199.4-16z"/><path class="g" d="M248.7 989.3l-118-78L0 805.3 229.3 770l19.4 219.3z"/><path class="b" d="M1334.5 1284l-83.2 217.6L1000 1580l135-181.5 199.5-114.5z"/><path class="g" d="M1492 1521.5l-240.7-19.9 83.2-217.6 144.5 97 13 140.5z"/><path class="b" d="M1682.5 1528.5l-190.5-7-13-140.5 141-97.5 62.5 245z"/><path class="d" d="M1939.3 820.7l-31.8 219.3L1734 939l77-223.6 128.3 105.3z"/><path class="g" d="M1832 440l-167.5 211.5-150.5 10 73.3-145.5 244.7-76z"/><path class="n" d="M1559.5 1759.5l-142 92.5 7.6-182 66.9-148.5 67.5 238z"/><path class="e" d="M1425 1670l-295 22.7 121.3-191 240.7 19.8-67 148.5z"/><path class="n" d="M2000 1967v33h-152.5l70.3-178 82.2 145z"/><path class="d" d="M2000 1596v85.5l-82.2 140.5 4.7-230 77.5 4z"/><path class="g" d="M1922.5 1592l-194.5 80.7-45.5-144.2 148.5-135 91.5 198.5z"/><path class="a" d="M1425 1670l-7.5 182-287.5-159.3 295-22.7z"/><path fill="#d9d9d9" d="M1847.5 2000H1730l42.5-126.5 75 126.5z"/><path class="b" d="M2000 1967l-82.2-145 82.2-140.5V1967z"/><path class="n" d="M2000 1596l-77.5-4 77.5-62.5v66.5z"/><path class="e" d="M2000 1529.5l-77.5 62.5 77.5-259.5v197z"/><path class="d" d="M2000 1332.5l-77.5 259.5-91.5-198.5 169-61z"/><path class="q" d="M1917.8 1822l-70.3 178-75-126.5 145.3-51.5z"/><path class="o" d="M1278.5 2000h-95l114.5-89.5-19.5 89.5z"/><path class="d" d="M1417.5 1852l-119.5 58.5-170.9-66 2.9-151.8 287.5 159.3z"/><path class="b" d="M1528.5 2000h-250l19.5-89.5 228.5 37.5 2 52z"/><path class="e" d="M1922.5 1592l-4.7 230-145.3 51.5-246 74.5-228.5-37.5 119.5-58.5 142-92.5 168.5-86.8 194.5-80.7z"/><path class="o" d="M1772.5 1873.5L1730 2000h-201.5l-2-52 246-74.5z"/><path class="e" d="M1620 1283.5l-141 97.5-144.5-97-199.5 114.5-135 181.5-192-45.3-140.7 8-136.6-165.4 19.3-210.6-253.3 36-48-213.4L229.3 770V522.7L358.5 432 508 331.3 600.7 552 422 612l30.5 379.5L720 961l-48 152.3 30 285.4L838 1054l-118-93 60.5-187-162.6 71.7L692 686l113.3-299.8 172 65.8-107.8 123 270-78.5L977.3 452 962 194.7l158.7 150.6 134.6 33.4 300-14 32 151.3-73.3 145.5-47 124L1314.5 548 1284 762l-199.4 16-32.6 100.8 205-20.8 89.5 194 118 153 155.5 78.5z"/><path class="g" d="M894 1698.7l-166.7-9.4-60-146.6 140.7-8 86 164z"/><path class="a" d="M348.5 2000H291l-107-153 166 102.5-1.5 50.5z"/><path class="q" d="M532 2000H402.1l-52.1-50.5 171-16.5 11 67zM686.7 1972l-2.2 28H576l-55-67 165.7 39z"/><path class="o" d="M944.5 1903.5l-108 96.5h-152l2.2-28 257.8-68.5z"/><path class="e" d="M1130 1692.7l-2.9 151.8-182.6 59-257.8 68.5 40.6-282.7 166.7 9.4 236-6z"/><path class="b" d="M1127.1 1844.5l-54.6 155.5h-236l108-96.5 182.6-59z"/><path class="a" d="M1298 1910.5l-114.5 89.5h-111l54.6-155.5 170.9 66z"/><path class="e" d="M686.7 1972L521 1933l-165.5-326.5 41.2-203.8 100.8 182.2 87.8 158.4L686.7 1972z"/><path class="r" d="M521 1933l-171 16.5 5.5-343L521 1933z"/><path class="g" d="M402.1 2000h-53.6l1.5-50.5 52.1 50.5z"/><path class="p" d="M576 2000h-44l-11-67 55 67z"/><path class="g" d="M350 1949.5L215 1630l140.5-23.5-5.5 343z"/><path class="d" d="M350 1949.5L184 1847l31-217 135 319.5z"/><path class="e" d="M184 1847l-166-79.2L215 1630l-31 217z"/><path class="g" d="M0 2000l18-232.2 166 79.2L0 2000z"/><path class="d" d="M291 2000H0l184-153 107 153z"/><path class="s" d="M18 1767.8L0 1617.5l215 12.5-197 137.8z"/><path class="b" d="M215 1630L99.5 1514.5l256 92L215 1630z"/><path class="g" d="M130.7 911.3L15.3 1130.7 0 1123.3v-144l130.7-68zM99.5 1514.5L215 1630 0 1617.5V1191l15.3-60.3 81.2 159.8 3 224z"/><path class="e" d="M1907.5 1040l-231.5 75-211.5 90-14.5-183 171-163 43.5-207.5L1832 440l-21 275.4-77 223.6 173.5 101z"/><path class="g" d="M2000 870.5v462l-169 61-27.5-199L1676 1115l231.5-75 31.8-219.3 60.7 49.8z"/></svg>

